<?xml version="1.0" encoding="UTF-8" standalone="no"?>
<svg
   width="16"
   height="16"
   version="1.1"
   id="svg1"
   sodipodi:docname="Path3D.svg"
   xml:space="preserve"
   inkscape:version="1.4 (86a8ad7, 2024-10-11)"
   xmlns:inkscape="http://www.inkscape.org/namespaces/inkscape"
   xmlns:sodipodi="http://sodipodi.sourceforge.net/DTD/sodipodi-0.dtd"
   xmlns="http://www.w3.org/2000/svg"
   xmlns:svg="http://www.w3.org/2000/svg"><defs
     id="defs1" /><sodipodi:namedview
     id="namedview1"
     pagecolor="#505050"
     bordercolor="#eeeeee"
     borderopacity="1"
     inkscape:showpageshadow="0"
     inkscape:pageopacity="0"
     inkscape:pagecheckerboard="0"
     inkscape:deskcolor="#505050"
     inkscape:zoom="74.3125"
     inkscape:cx="8"
     inkscape:cy="8"
     inkscape:window-width="2560"
     inkscape:window-height="1369"
     inkscape:window-x="-8"
     inkscape:window-y="-8"
     inkscape:window-maximized="1"
     inkscape:current-layer="svg1" /><path
     fill="#fc7f7f"
     d="M13 1a2 2 0 0 0-1.15 3.633c-.193.885-.554 1.34-.987 1.642-.644.451-1.713.606-2.963.73s-2.681.221-3.912 1.083c-.892.625-1.532 1.652-1.818 3.096a2 2 0 1 0 1.98.183c.193-.885.553-1.337.987-1.64.644-.451 1.713-.606 2.963-.73s2.681-.221 3.912-1.083c.892-.625 1.532-1.654 1.818-3.098A2 2 0 0 0 13 1z"
     id="path1" /><path
     fill="none"
     stroke="#e0e0e0"
     stroke-linecap="round"
     stroke-linejoin="round"
     stroke-width="0.928848"
     d="m 6.4402082,2.1077267 v 3.250967 L 8.2979035,3.5009983 M 6.4402082,5.3586937 4.5825128,3.5009983"
     id="path1-8"
     style="stroke:#fc7f7f;stroke-opacity:1" /></svg>
